<svg xmlns="http://www.w3.org/2000/svg" viewBox="0 0 714 617"><defs><style>.cls-1{isolation:isolate;}.cls-2{fill:#659daa;opacity:0.63;}.cls-3,.cls-7{fill:#996;}.cls-4{fill:#99927b;}.cls-5{fill:#87806c;}.cls-6{fill:#e2f0e9;}.cls-7{opacity:0.51;mix-blend-mode:darken;}.cls-8{fill:#a2c430;}.cls-9{fill:#d0f341;}.cls-10{fill:#779300;}.cls-11{fill:#8ead28;}.cls-12{fill:#83963e;}.cls-13{fill:#c1db35;}.cls-14{fill:#79981f;}.cls-15{fill:#99ba38;}.cls-16{fill:#7a7462;}.cls-17{fill:#8f8873;}</style></defs><g class="cls-1"><g id="Grass"><polygon class="cls-2" points="274.64 93.47 148.12 378.69 401.16 378.69 274.64 93.47"/><polygon class="cls-2" points="451.86 90.3 325.34 375.51 578.38 375.51 451.86 90.3"/><polygon class="cls-3" points="502.65 143.39 382.38 357.62 622.91 357.62 502.65 143.39"/><polygon class="cls-4" points="502.65 143.39 419.58 357.62 585.72 357.62 502.65 143.39"/><polygon class="cls-5" points="502.65 144.18 460.49 357.62 542.32 357.62 502.65 144.18"/><path class="cls-6" d="M477,218.91c7.26,0,7.2-12.74,14.46-12.77s7.32,12.68,14.58,12.64,7.2-12.73,14.46-12.76,7.32,12.67,14.59,12.64c3.29,0,5.08-2.65,6.73-5.51l-39.19-69.8L466.42,207.9C470.09,211.33,471.4,218.94,477,218.91Z"/><polygon class="cls-7" points="502.6 143.39 382.47 357.62 508.8 357.62 502.6 143.39"/><polygon class="cls-3" points="221.06 143.84 103.97 330.15 338.16 330.15 221.06 143.84"/><polygon class="cls-4" points="221.06 143.84 140.19 330.15 301.94 330.15 221.06 143.84"/><polygon class="cls-5" points="221.06 144.53 180.02 330.15 259.69 330.15 221.06 144.53"/><path class="cls-6" d="M192.32,210.87c6.94,0,7-12.68,14-12.65S213.16,211,220.11,211s7-12.67,14-12.64,6.88,12.74,13.83,12.77c4.88,0,6.37-6.23,9.22-10l-36.06-57.38-36.83,58.59C186.44,206.09,188.07,210.85,192.32,210.87Z"/><polygon class="cls-7" points="221.06 143.64 104.1 329.95 227.1 329.95 221.06 143.64"/><polygon class="cls-3" points="364.8 21 218.55 334.22 511.04 334.22 364.8 21"/><polygon class="cls-4" points="364.8 21 263.78 334.22 465.81 334.22 364.8 21"/><polygon class="cls-5" points="364.8 22.16 313.53 334.22 413.04 334.22 364.8 22.16"/><path class="cls-6" d="M323.35,123.33c8.76,0,8.76-12.71,17.51-12.71s8.76,12.71,17.51,12.71,8.76-12.71,17.52-12.71,8.76,12.71,17.51,12.71c7.26,0,8.51-8.72,13.71-11.71L364.8,21,318,121.21A7.62,7.62,0,0,0,323.35,123.33Z"/><polygon class="cls-7" points="364.8 21 218.71 334.22 372.33 334.22 364.8 21"/><polygon class="cls-3" points="601.64 485.67 699.12 399.99 530.72 399.73 601.64 485.67"/><polygon class="cls-4" points="601.64 485.67 673.08 399.95 556.76 399.77 601.64 485.67"/><polygon class="cls-5" points="601.64 485.34 644.43 399.9 587.14 399.81 601.64 485.34"/><polygon class="cls-7" points="601.64 485.67 699.02 399.99 610.58 399.85 601.64 485.67"/><polygon class="cls-3" points="414.52 608 525.37 400.13 302.65 399.75 414.52 608"/><polygon class="cls-4" points="414.52 608 490.92 400.07 337.09 399.81 414.52 608"/><polygon class="cls-5" points="414.52 607.28 453.04 400 377.27 399.88 414.52 607.28"/><polygon class="cls-7" points="414.52 608 525.25 400.13 408.26 399.93 414.52 608"/><polygon class="cls-3" points="358.82 560.21 439.72 398.6 217.31 398.23 358.82 560.21"/><polygon class="cls-4" points="358.82 560.21 405.33 398.54 251.71 398.29 358.82 560.21"/><polygon class="cls-5" points="358.82 559.68 367.5 398.48 291.83 398.35 358.82 559.68"/><polygon class="cls-7" points="358.82 560.21 439.6 398.6 322.78 398.41 358.82 560.21"/><polygon class="cls-3" points="114.44 488.24 171.86 399.5 26.34 399.25 114.44 488.24"/><polygon class="cls-4" points="114.44 488.24 149.35 399.46 48.84 399.29 114.44 488.24"/><polygon class="cls-5" points="114.44 487.91 124.6 399.42 75.1 399.33 114.44 487.91"/><polygon class="cls-7" points="114.44 488.24 171.78 399.5 95.35 399.37 114.44 488.24"/><polygon class="cls-3" points="194.28 529.17 212.95 400.5 97.88 400.31 194.28 529.17"/><polygon class="cls-4" points="194.28 529.17 195.15 400.47 115.67 400.34 194.28 529.17"/><polygon class="cls-5" points="194.28 528.69 175.58 400.44 136.43 400.38 194.28 528.69"/><polygon class="cls-7" points="194.28 529.17 212.89 400.5 152.45 400.4 194.28 529.17"/><polygon class="cls-3" points="287.5 565.83 362.11 406.09 139.26 405.79 287.5 565.83"/><polygon class="cls-4" points="287.5 565.83 327.65 406.04 173.72 405.84 287.5 565.83"/><polygon class="cls-5" points="287.5 565.22 289.74 405.99 213.93 405.89 287.5 565.22"/><polygon class="cls-7" points="287.5 565.83 361.99 406.08 244.94 405.93 287.5 565.83"/><rect class="cls-8" x="9.99" y="377.1" width="692.01" height="28.99" rx="14.49"/><polygon class="cls-3" points="473.14 547.48 556.49 406.44 430.63 406.32 473.14 547.48"/><polygon class="cls-4" points="473.14 547.48 537.02 406.42 450.09 406.34 473.14 547.48"/><polygon class="cls-5" points="473.14 546.96 515.62 406.4 472.8 406.36 473.14 546.96"/><polygon class="cls-7" points="473.14 547.48 556.42 406.44 490.31 406.38 473.14 547.48"/><polygon class="cls-3" points="529.05 542.94 633.04 406.14 507.17 406.05 529.05 542.94"/><polygon class="cls-4" points="529.05 542.94 613.57 406.13 526.64 406.06 529.05 542.94"/><polygon class="cls-5" points="529.05 542.34 592.16 406.11 549.35 406.08 529.05 542.34"/><polygon class="cls-7" points="529.05 542.94 632.97 406.14 566.86 406.09 529.05 542.94"/><rect class="cls-9" x="30.6" y="357.11" width="653.32" height="20.34" rx="10.17"/><path class="cls-10" d="M340.17,238.63v0h-2v0C311.55,239,284.8,246,263.61,267c-16.08,16-26.69,38.35-41.94,55.22l-9.36,10.36c-8.63,9.55-18.11,16.38-27.24,24.48,38.36,1.81,76.69-.41,115-1.27,76-1.71,152.11.81,228.12,1.87l23.2.32,2.46-16C416.71,375.6,465.94,240.58,340.17,238.63Z"/><path class="cls-11" d="M630.17,346.25c-68.95-10.79-52.32-103.3-153-104.89v0h-1.92v0c0-1.17-26,2.81-28.55,3.42a91,91,0,0,0-22.37,8.62C412,260.23,402.08,270,393.76,280.78c-15.12,19.58-25.86,44.47-48.77,57.63-4.74,2.72-10.38,5.59-15.83,6.73-4.07.86-8.48.63-12.08,2.85-4.09,2.53-7.15,6.91-10.58,10.14l171.36,2L648.14,358A69.74,69.74,0,0,1,630.17,346.25Z"/><path class="cls-12" d="M376.71,358.19a137.05,137.05,0,0,1-14.45-10.5C305.8,331.12,314,264.19,216,263v0h-2v0c-26.62.33-53.36,6-74.55,23.07-16.08,13-26.69,31.18-41.94,44.9l-9.36,8.43c-8.63,7.77-18.11,13.32-27.24,19.91,2-1.46,11.33.35,14,.41q8.28.17,16.58.17c85.15.21,170.23-2.59,255.38-.75l6.47.14c5.39.13,10.77.2,16.14.17,1.91,0,7.5-1,9.2.06Z"/><path class="cls-13" d="M80.85,360a21.63,21.63,0,0,0-20.6-21.73V378h20.6Z"/><path class="cls-14" d="M59.36,338.29h0a19.84,19.84,0,0,0-19.72,19.95V378H60.25V338.31Z"/><ellipse class="cls-15" cx="64.27" cy="356.09" rx="2.01" ry="2.03"/><ellipse class="cls-15" cx="66.28" cy="346.43" rx="2.01" ry="2.03"/><ellipse class="cls-15" cx="74.32" cy="372.87" rx="2.01" ry="2.03"/><ellipse class="cls-15" cx="72.31" cy="363.21" rx="2.01" ry="2.03"/><ellipse class="cls-15" cx="64.27" cy="370.33" rx="2.01" ry="2.03"/><ellipse class="cls-15" cx="74.82" cy="353.55" rx="2.01" ry="2.03"/><path class="cls-13" d="M94.15,366.93a13.31,13.31,0,0,0-12.68-13.37V378H94.15Z"/><path class="cls-14" d="M80.92,353.55h0a12.2,12.2,0,0,0-12.13,12.27V378H81.47v-24.4Z"/><ellipse class="cls-15" cx="83.95" cy="364.5" rx="1.24" ry="1.25"/><ellipse class="cls-15" cx="85.18" cy="358.55" rx="1.24" ry="1.25"/><ellipse class="cls-15" cx="90.13" cy="374.83" rx="1.24" ry="1.25"/><ellipse class="cls-15" cx="88.89" cy="368.88" rx="1.24" ry="1.25"/><ellipse class="cls-15" cx="83.95" cy="373.26" rx="1.24" ry="1.25"/><ellipse class="cls-15" cx="90.44" cy="362.94" rx="1.24" ry="1.25"/><path class="cls-13" d="M449.85,366.9a13.31,13.31,0,0,0-12.68-13.37v24.39h12.68Z"/><path class="cls-14" d="M436.62,353.51h0a12.21,12.21,0,0,0-12.13,12.28v12.13h12.68V353.53Z"/><ellipse class="cls-15" cx="439.64" cy="364.47" rx="1.24" ry="1.25"/><ellipse class="cls-15" cx="440.88" cy="358.52" rx="1.24" ry="1.25"/><ellipse class="cls-15" cx="445.83" cy="374.79" rx="1.24" ry="1.25"/><ellipse class="cls-15" cx="444.59" cy="368.85" rx="1.24" ry="1.25"/><ellipse class="cls-15" cx="439.64" cy="373.23" rx="1.24" ry="1.25"/><ellipse class="cls-15" cx="446.13" cy="362.9" rx="1.24" ry="1.25"/><path class="cls-13" d="M421.58,341.73A21.63,21.63,0,0,0,401,320v39.65h20.6Z"/><path class="cls-14" d="M400.09,320h0a19.84,19.84,0,0,0-19.72,19.95v19.72H401V320Z"/><ellipse class="cls-15" cx="405" cy="337.78" rx="2.01" ry="2.03"/><ellipse class="cls-15" cx="407.01" cy="328.12" rx="2.01" ry="2.03"/><ellipse class="cls-15" cx="415.05" cy="354.56" rx="2.01" ry="2.03"/><ellipse class="cls-15" cx="413.04" cy="344.9" rx="2.01" ry="2.03"/><ellipse class="cls-15" cx="405" cy="352.02" rx="2.01" ry="2.03"/><ellipse class="cls-15" cx="415.55" cy="335.24" rx="2.01" ry="2.03"/><path class="cls-13" d="M383.77,351.28a13.32,13.32,0,0,0-12.68-13.37v24.4h12.68Z"/><path class="cls-14" d="M370.54,337.9h0a12.21,12.21,0,0,0-12.13,12.28v12.13h12.68v-24.4Z"/><ellipse class="cls-15" cx="373.56" cy="348.85" rx="1.24" ry="1.25"/><ellipse class="cls-15" cx="374.8" cy="342.91" rx="1.24" ry="1.25"/><ellipse class="cls-15" cx="379.75" cy="359.18" rx="1.24" ry="1.25"/><ellipse class="cls-15" cx="378.51" cy="353.23" rx="1.24" ry="1.25"/><ellipse class="cls-15" cx="373.56" cy="357.62" rx="1.24" ry="1.25"/><ellipse class="cls-15" cx="380.06" cy="347.29" rx="1.24" ry="1.25"/><polygon class="cls-8" points="206.99 359.14 242.17 359.14 242.17 239.62 206.99 359.14"/><polygon class="cls-9" points="242.17 239.62 242.17 359.14 277.35 359.14 242.17 239.62"/><polygon class="cls-8" points="241.94 283.55 238.55 279.29 245.33 279.29 241.94 283.55"/><polygon class="cls-8" points="250.19 293.21 246.79 288.95 253.57 288.95 250.19 293.21"/><polygon class="cls-8" points="242.14 305.93 238.75 301.67 245.53 301.67 242.14 305.93"/><polygon class="cls-8" points="253.7 308.98 250.31 304.72 257.09 304.72 253.7 308.98"/><polygon class="cls-8" points="261.24 331.36 257.85 327.1 264.63 327.1 261.24 331.36"/><polygon class="cls-8" points="251.19 341.53 247.8 337.27 254.58 337.27 251.19 341.53"/><polygon class="cls-8" points="265.76 346.61 262.37 342.36 269.15 342.36 265.76 346.61"/><polygon class="cls-8" points="254.71 354.75 251.32 350.5 258.1 350.5 254.71 354.75"/><polygon class="cls-8" points="246.16 271.85 242.77 267.6 249.55 267.6 246.16 271.85"/><polygon class="cls-8" points="242.14 321.69 238.75 317.44 245.53 317.44 242.14 321.69"/><polygon class="cls-8" points="253.7 323.22 250.31 318.96 257.09 318.96 253.7 323.22"/><polygon class="cls-8" points="242.14 334.41 238.75 330.15 245.53 330.15 242.14 334.41"/><polygon class="cls-8" points="242.14 349.66 238.75 345.41 245.53 345.41 242.14 349.66"/><polygon class="cls-8" points="267.77 356.28 264.38 352.02 271.16 352.02 267.77 356.28"/><polygon class="cls-8" points="592.28 359.19 627.46 359.73 629.26 240.23 592.28 359.19"/><polygon class="cls-9" points="629.26 240.23 627.46 359.73 662.63 360.28 629.26 240.23"/><polygon class="cls-8" points="628.37 284.14 625.04 279.84 631.82 279.94 628.37 284.14"/><polygon class="cls-8" points="636.46 293.93 633.14 289.63 639.92 289.73 636.46 293.93"/><polygon class="cls-8" points="628.23 306.52 624.91 302.22 631.69 302.32 628.23 306.52"/><polygon class="cls-8" points="639.74 309.75 636.42 305.45 643.2 305.55 639.74 309.75"/><polygon class="cls-8" points="646.94 332.25 643.62 327.94 650.4 328.04 646.94 332.25"/><polygon class="cls-8" points="636.74 342.26 633.41 337.95 640.19 338.06 636.74 342.26"/><polygon class="cls-8" points="651.23 347.57 647.91 343.26 654.69 343.37 651.23 347.57"/><polygon class="cls-8" points="640.06 355.54 636.73 351.23 643.51 351.33 640.06 355.54"/><polygon class="cls-8" points="632.77 272.51 629.44 268.21 636.22 268.31 632.77 272.51"/><polygon class="cls-8" points="627.99 322.29 624.67 317.98 631.45 318.08 627.99 322.29"/><polygon class="cls-8" points="639.53 323.99 636.2 319.68 642.98 319.79 639.53 323.99"/><polygon class="cls-8" points="627.8 335 624.48 330.69 631.25 330.8 627.8 335"/><polygon class="cls-8" points="627.57 350.26 624.25 345.95 631.02 346.05 627.57 350.26"/><polygon class="cls-8" points="653.1 357.26 649.77 352.96 656.55 353.06 653.1 357.26"/><polygon class="cls-8" points="259.5 359.28 279.48 359.28 279.48 288.95 259.5 359.28"/><polygon class="cls-9" points="279.48 288.95 279.48 359.28 299.46 359.28 279.48 288.95"/><polygon class="cls-8" points="279.35 314.8 277.43 312.3 281.28 312.3 279.35 314.8"/><polygon class="cls-8" points="284.03 320.49 282.11 317.98 285.96 317.98 284.03 320.49"/><polygon class="cls-8" points="279.47 327.97 277.54 325.47 281.39 325.47 279.47 327.97"/><polygon class="cls-8" points="286.03 329.76 284.11 327.26 287.96 327.26 286.03 329.76"/><polygon class="cls-8" points="290.31 342.93 288.39 340.43 292.24 340.43 290.31 342.93"/><polygon class="cls-8" points="284.6 348.92 282.68 346.41 286.53 346.41 284.6 348.92"/><polygon class="cls-8" points="292.88 351.91 290.96 349.41 294.81 349.41 292.88 351.91"/><polygon class="cls-8" points="286.6 356.7 284.68 354.19 288.53 354.19 286.6 356.7"/><polygon class="cls-8" points="281.75 307.92 279.82 305.42 283.68 305.42 281.75 307.92"/><polygon class="cls-8" points="279.47 337.25 277.54 334.74 281.39 334.74 279.47 337.25"/><polygon class="cls-8" points="286.03 338.14 284.11 335.64 287.96 335.64 286.03 338.14"/><polygon class="cls-8" points="279.47 344.73 277.54 342.22 281.39 342.22 279.47 344.73"/><polygon class="cls-8" points="279.47 353.71 277.54 351.2 281.39 351.2 279.47 353.71"/><polygon class="cls-8" points="294.02 357.6 292.1 355.09 295.95 355.09 294.02 357.6"/><polygon class="cls-8" points="455.73 360.57 477.61 360.57 477.61 270.14 455.73 360.57"/><polygon class="cls-9" points="477.61 270.14 477.61 360.57 499.48 360.57 477.61 270.14"/><polygon class="cls-8" points="477.46 303.38 475.35 300.15 479.57 300.15 477.46 303.38"/><polygon class="cls-8" points="482.59 310.69 480.48 307.47 484.69 307.47 482.59 310.69"/><polygon class="cls-8" points="477.59 320.31 475.48 317.09 479.69 317.09 477.59 320.31"/><polygon class="cls-8" points="484.77 322.62 482.67 319.4 486.88 319.4 484.77 322.62"/><polygon class="cls-8" points="489.46 339.55 487.35 336.33 491.57 336.33 489.46 339.55"/><polygon class="cls-8" points="483.21 347.25 481.1 344.03 485.32 344.03 483.21 347.25"/><polygon class="cls-8" points="492.27 351.09 490.17 347.88 494.38 347.88 492.27 351.09"/><polygon class="cls-8" points="485.4 357.25 483.29 354.03 487.51 354.03 485.4 357.25"/><polygon class="cls-8" points="480.09 294.52 477.98 291.3 482.19 291.3 480.09 294.52"/><polygon class="cls-8" points="477.59 332.24 475.48 329.02 479.69 329.02 477.59 332.24"/><polygon class="cls-8" points="484.77 333.39 482.67 330.17 486.88 330.17 484.77 333.39"/><polygon class="cls-8" points="477.59 341.86 475.48 338.64 479.69 338.64 477.59 341.86"/><polygon class="cls-8" points="477.59 353.4 475.48 350.18 479.69 350.18 477.59 353.4"/><polygon class="cls-8" points="493.52 358.41 491.42 355.19 495.63 355.19 493.52 358.41"/><rect class="cls-16" x="165.69" y="339.7" width="4.71" height="36.74"/><path class="cls-8" d="M142.16,313.72c0,15.08,11.59,27.3,25.89,27.3h.09L168,286.41C153.71,286.46,142.16,298.66,142.16,313.72Z"/><path class="cls-9" d="M193.93,313.72c0-15.08-11.59-27.31-25.88-27.31H168l.17,54.61C182.39,341,193.93,328.76,193.93,313.72Z"/><rect class="cls-8" x="170.4" y="301.31" width="5.65" height="1.99" rx="0.99"/><rect class="cls-8" x="180.75" y="305.28" width="5.65" height="1.99" rx="0.99"/><rect class="cls-8" x="170.4" y="312.56" width="5.65" height="1.99" rx="0.99"/><rect class="cls-8" x="184.83" y="314.54" width="5.65" height="1.99" rx="0.99"/><rect class="cls-8" x="174.16" y="321.49" width="5.65" height="1.99" rx="0.99"/><rect class="cls-8" x="182.01" y="327.12" width="5.65" height="1.99" rx="0.99"/><rect class="cls-8" x="170.4" y="331.42" width="5.65" height="1.99" rx="0.99"/><rect class="cls-8" x="179.18" y="295.35" width="5.65" height="1.99" rx="0.99"/><rect class="cls-8" x="170.4" y="289.72" width="5.65" height="1.99" rx="0.99"/><rect class="cls-16" x="541.46" y="271.67" width="2.97" height="20.34"/><path class="cls-8" d="M526.62,257.28c0,8.35,7.31,15.12,16.33,15.12H543l-.11-30.23C533.9,242.19,526.62,249,526.62,257.28Z"/><path class="cls-9" d="M559.28,257.28c0-8.35-7.31-15.11-16.33-15.11h-.05L543,272.4C552,272.37,559.28,265.61,559.28,257.28Z"/><rect class="cls-8" x="544.43" y="250.41" width="3.56" height="1.1" rx="0.55"/><rect class="cls-8" x="550.97" y="252.61" width="3.56" height="1.1" rx="0.55"/><rect class="cls-8" x="544.43" y="256.64" width="3.56" height="1.1" rx="0.55"/><rect class="cls-8" x="553.54" y="257.74" width="3.56" height="1.1" rx="0.55"/><rect class="cls-8" x="546.81" y="261.59" width="3.56" height="1.1" rx="0.55"/><rect class="cls-8" x="551.76" y="264.7" width="3.56" height="1.1" rx="0.55"/><rect class="cls-8" x="544.43" y="267.09" width="3.56" height="1.1" rx="0.55"/><rect class="cls-8" x="549.98" y="247.11" width="3.56" height="1.1" rx="0.55"/><rect class="cls-8" x="544.43" y="244" width="3.56" height="1.1" rx="0.55"/><polygon class="cls-8" points="287.9 277.9 292.74 277.9 292.74 260.22 287.9 277.9"/><polygon class="cls-9" points="292.74 260.22 292.74 277.9 297.58 277.9 292.74 260.22"/><polygon class="cls-8" points="292.71 266.72 292.24 266.09 293.18 266.09 292.71 266.72"/><polygon class="cls-8" points="293.84 268.15 293.38 267.52 294.31 267.52 293.84 268.15"/><polygon class="cls-8" points="292.74 270.03 292.27 269.4 293.2 269.4 292.74 270.03"/><polygon class="cls-8" points="294.33 270.48 293.86 269.85 294.79 269.85 294.33 270.48"/><polygon class="cls-8" points="295.36 273.79 294.9 273.16 295.83 273.16 295.36 273.79"/><polygon class="cls-8" points="293.98 275.3 293.52 274.67 294.45 274.67 293.98 275.3"/><polygon class="cls-8" points="295.99 276.05 295.52 275.42 296.45 275.42 295.99 276.05"/><polygon class="cls-8" points="294.47 277.25 294 276.62 294.93 276.62 294.47 277.25"/><polygon class="cls-8" points="293.29 264.99 292.82 264.36 293.76 264.36 293.29 264.99"/><polygon class="cls-8" points="292.74 272.36 292.27 271.73 293.2 271.73 292.74 272.36"/><polygon class="cls-8" points="294.33 272.59 293.86 271.96 294.79 271.96 294.33 272.59"/><polygon class="cls-8" points="292.74 274.24 292.27 273.61 293.2 273.61 292.74 274.24"/><polygon class="cls-8" points="292.74 276.5 292.27 275.87 293.2 275.87 292.74 276.5"/><polygon class="cls-8" points="296.26 277.48 295.8 276.85 296.73 276.85 296.26 277.48"/><rect class="cls-16" x="365.15" y="280.68" width="1.89" height="12.07"/><path class="cls-8" d="M355.72,272.15c0,5,4.65,9,10.38,9h0l-.07-17.94C360.35,263.19,355.72,267.2,355.72,272.15Z"/><path class="cls-9" d="M376.48,272.15c0-5-4.65-9-10.38-9h0l.07,17.94C371.85,281.1,376.48,277.09,376.48,272.15Z"/><rect class="cls-8" x="367.04" y="268.07" width="2.26" height="0.65" rx="0.33"/><rect class="cls-8" x="371.19" y="269.38" width="2.26" height="0.65" rx="0.33"/><rect class="cls-8" x="367.04" y="271.77" width="2.26" height="0.65" rx="0.33"/><rect class="cls-8" x="372.83" y="272.42" width="2.26" height="0.65" rx="0.33"/><rect class="cls-8" x="368.55" y="274.7" width="2.26" height="0.65" rx="0.33"/><rect class="cls-8" x="371.7" y="276.55" width="2.26" height="0.65" rx="0.33"/><rect class="cls-8" x="367.04" y="277.96" width="2.26" height="0.65" rx="0.33"/><rect class="cls-8" x="370.56" y="266.11" width="2.26" height="0.65" rx="0.33"/><rect class="cls-8" x="367.04" y="264.27" width="2.26" height="0.65" rx="0.33"/><path class="cls-13" d="M446.21,290.45c0-4.64-3.36-8.42-7.57-8.61v15.7h7.57Z"/><path class="cls-14" d="M438.31,281.84h0c-4,0-7.25,3.53-7.25,7.9v7.8h7.58v-15.7Z"/><ellipse class="cls-15" cx="440.11" cy="288.88" rx="0.74" ry="0.81"/><ellipse class="cls-15" cx="440.85" cy="285.06" rx="0.74" ry="0.81"/><ellipse class="cls-15" cx="443.81" cy="295.53" rx="0.74" ry="0.81"/><ellipse class="cls-15" cx="443.07" cy="291.7" rx="0.74" ry="0.81"/><ellipse class="cls-15" cx="440.11" cy="294.52" rx="0.74" ry="0.81"/><ellipse class="cls-15" cx="443.99" cy="287.88" rx="0.74" ry="0.81"/><path class="cls-13" d="M434.07,300.31c0-4.64-3.36-8.42-7.57-8.6v15.7h7.57Z"/><path class="cls-14" d="M426.17,291.7h0c-4,0-7.25,3.54-7.25,7.9v7.81h7.58v-15.7Z"/><ellipse class="cls-15" cx="427.97" cy="298.75" rx="0.74" ry="0.81"/><ellipse class="cls-15" cx="428.71" cy="294.92" rx="0.74" ry="0.81"/><ellipse class="cls-15" cx="431.67" cy="305.39" rx="0.74" ry="0.81"/><ellipse class="cls-15" cx="430.93" cy="301.57" rx="0.74" ry="0.81"/><ellipse class="cls-15" cx="427.97" cy="304.39" rx="0.74" ry="0.81"/><ellipse class="cls-15" cx="431.85" cy="297.74" rx="0.74" ry="0.81"/><polygon class="cls-8" points="437.98 267.36 449.88 267.36 449.88 223.86 437.98 267.36"/><polygon class="cls-9" points="449.88 223.86 449.88 267.36 461.79 267.36 449.88 223.86"/><polygon class="cls-8" points="449.8 239.85 448.66 238.3 450.95 238.3 449.8 239.85"/><polygon class="cls-8" points="452.59 243.36 451.45 241.81 453.74 241.81 452.59 243.36"/><polygon class="cls-8" points="449.87 247.99 448.72 246.44 451.02 246.44 449.87 247.99"/><polygon class="cls-8" points="453.78 249.1 452.64 247.55 454.93 247.55 453.78 249.1"/><polygon class="cls-8" points="456.33 257.25 455.19 255.7 457.48 255.7 456.33 257.25"/><polygon class="cls-8" points="452.93 260.95 451.79 259.4 454.08 259.4 452.93 260.95"/><polygon class="cls-8" points="457.87 262.8 456.72 261.25 459.01 261.25 457.87 262.8"/><polygon class="cls-8" points="454.12 265.77 452.98 264.22 455.27 264.22 454.12 265.77"/><polygon class="cls-8" points="451.23 235.59 450.08 234.04 452.38 234.04 451.23 235.59"/><polygon class="cls-8" points="449.87 253.73 448.72 252.18 451.02 252.18 449.87 253.73"/><polygon class="cls-8" points="453.78 254.29 452.64 252.74 454.93 252.74 453.78 254.29"/><polygon class="cls-8" points="449.87 258.36 448.72 256.81 451.02 256.81 449.87 258.36"/><polygon class="cls-8" points="449.87 263.91 448.72 262.37 451.02 262.37 449.87 263.91"/><polygon class="cls-8" points="458.55 266.32 457.4 264.77 459.69 264.77 458.55 266.32"/><polygon class="cls-8" points="496.69 291.2 503.86 291.2 503.86 257.93 496.69 291.2"/><polygon class="cls-9" points="503.86 257.93 503.86 291.2 511.04 291.2 503.86 257.93"/><polygon class="cls-8" points="503.82 270.16 503.13 268.97 504.51 268.97 503.82 270.16"/><polygon class="cls-8" points="505.5 272.85 504.81 271.66 506.19 271.66 505.5 272.85"/><polygon class="cls-8" points="503.86 276.39 503.17 275.2 504.55 275.2 503.86 276.39"/><polygon class="cls-8" points="506.21 277.24 505.52 276.05 506.91 276.05 506.21 277.24"/><polygon class="cls-8" points="507.75 283.46 507.06 282.28 508.44 282.28 507.75 283.46"/><polygon class="cls-8" points="505.7 286.3 505.01 285.11 506.39 285.11 505.7 286.3"/><polygon class="cls-8" points="508.68 287.71 507.98 286.53 509.37 286.53 508.68 287.71"/><polygon class="cls-8" points="506.42 289.98 505.73 288.79 507.11 288.79 506.42 289.98"/><polygon class="cls-8" points="504.68 266.9 503.99 265.72 505.37 265.72 504.68 266.9"/><polygon class="cls-8" points="503.86 280.77 503.17 279.59 504.55 279.59 503.86 280.77"/><polygon class="cls-8" points="506.21 281.2 505.52 280.01 506.91 280.01 506.21 281.2"/><polygon class="cls-8" points="503.86 284.31 503.17 283.13 504.55 283.13 503.86 284.31"/><polygon class="cls-8" points="503.86 288.56 503.17 287.38 504.55 287.38 503.86 288.56"/><polygon class="cls-8" points="509.08 290.4 508.39 289.22 509.78 289.22 509.08 290.4"/><rect class="cls-16" x="523.3" y="339.2" width="5.31" height="38.06"/><path class="cls-8" d="M496.73,312.29c0,15.62,13.09,28.28,29.22,28.28h.11L525.87,284C509.77,284,496.73,296.69,496.73,312.29Z"/><path class="cls-9" d="M555.17,312.29c0-15.63-13.08-28.29-29.22-28.29h-.08l.19,56.57C542.15,340.52,555.17,327.87,555.17,312.29Z"/><rect class="cls-8" x="528.61" y="299.43" width="6.38" height="2.06" rx="1.03"/><rect class="cls-8" x="540.3" y="303.54" width="6.38" height="2.06" rx="1.03"/><rect class="cls-8" x="528.61" y="311.09" width="6.38" height="2.06" rx="1.03"/><rect class="cls-8" x="544.9" y="313.14" width="6.38" height="2.06" rx="1.03"/><rect class="cls-8" x="532.86" y="320.34" width="6.38" height="2.06" rx="1.03"/><rect class="cls-8" x="541.71" y="326.17" width="6.38" height="2.06" rx="1.03"/><rect class="cls-8" x="528.61" y="330.63" width="6.38" height="2.06" rx="1.03"/><rect class="cls-8" x="538.53" y="293.25" width="6.38" height="2.06" rx="1.03"/><rect class="cls-8" x="528.61" y="287.43" width="6.38" height="2.06" rx="1.03"/><rect class="cls-16" x="576.72" y="329.95" width="6.76" height="47.22"/><path class="cls-8" d="M542.91,296.55c0,19.38,16.65,35.1,37.19,35.1h.14l-.25-70.2C559.5,261.51,542.91,277.2,542.91,296.55Z"/><path class="cls-9" d="M617.3,296.55c0-19.38-16.66-35.1-37.2-35.1H580l.25,70.2C600.72,331.58,617.3,315.89,617.3,296.55Z"/><rect class="cls-8" x="583.49" y="280.6" width="8.11" height="2.55" rx="1.28"/><rect class="cls-8" x="598.36" y="285.7" width="8.11" height="2.55" rx="1.28"/><rect class="cls-8" x="583.49" y="295.06" width="8.11" height="2.55" rx="1.28"/><rect class="cls-8" x="604.22" y="297.61" width="8.11" height="2.55" rx="1.28"/><rect class="cls-8" x="588.9" y="306.55" width="8.11" height="2.55" rx="1.28"/><rect class="cls-8" x="600.17" y="313.78" width="8.11" height="2.55" rx="1.28"/><rect class="cls-8" x="583.49" y="319.31" width="8.11" height="2.55" rx="1.28"/><rect class="cls-8" x="596.11" y="272.94" width="8.11" height="2.55" rx="1.28"/><rect class="cls-8" x="583.49" y="265.71" width="8.11" height="2.55" rx="1.28"/><path class="cls-13" d="M678.39,359.53a21.64,21.64,0,0,0-20.61-21.73v39.65h20.61Z"/><path class="cls-14" d="M656.89,337.78h0a19.83,19.83,0,0,0-19.71,20v19.72h20.6V337.8Z"/><ellipse class="cls-15" cx="661.8" cy="355.58" rx="2.01" ry="2.03"/><ellipse class="cls-15" cx="663.81" cy="345.92" rx="2.01" ry="2.03"/><ellipse class="cls-15" cx="671.85" cy="372.36" rx="2.01" ry="2.03"/><ellipse class="cls-15" cx="669.84" cy="362.7" rx="2.01" ry="2.03"/><ellipse class="cls-15" cx="661.8" cy="369.82" rx="2.01" ry="2.03"/><ellipse class="cls-15" cx="672.36" cy="353.04" rx="2.01" ry="2.03"/><path class="cls-13" d="M692,367.24a13.31,13.31,0,0,0-12.68-13.37v24.39H692Z"/><path class="cls-14" d="M678.8,353.85h0a12.21,12.21,0,0,0-12.13,12.28v12.13h12.68V353.87Z"/><ellipse class="cls-15" cx="681.82" cy="364.81" rx="1.24" ry="1.25"/><ellipse class="cls-15" cx="683.06" cy="358.86" rx="1.24" ry="1.25"/><ellipse class="cls-15" cx="688.01" cy="375.13" rx="1.24" ry="1.25"/><ellipse class="cls-15" cx="686.77" cy="369.19" rx="1.24" ry="1.25"/><ellipse class="cls-15" cx="681.82" cy="373.57" rx="1.24" ry="1.25"/><ellipse class="cls-15" cx="688.32" cy="363.24" rx="1.24" ry="1.25"/><polygon class="cls-8" points="193.93 331.01 202.72 331.01 202.72 300.07 193.93 331.01"/><polygon class="cls-9" points="202.72 300.07 202.72 331.01 211.51 331.01 202.72 300.07"/><polygon class="cls-8" points="202.66 311.44 201.81 310.34 203.51 310.34 202.66 311.44"/><polygon class="cls-8" points="204.72 313.94 203.87 312.84 205.57 312.84 204.72 313.94"/><polygon class="cls-8" points="202.71 317.23 201.86 316.13 203.56 316.13 202.71 317.23"/><polygon class="cls-8" points="205.6 318.02 204.75 316.92 206.45 316.92 205.6 318.02"/><polygon class="cls-8" points="207.48 323.81 206.63 322.71 208.33 322.71 207.48 323.81"/><polygon class="cls-8" points="204.97 326.45 204.12 325.35 205.82 325.35 204.97 326.45"/><polygon class="cls-8" points="208.61 327.76 207.76 326.66 209.46 326.66 208.61 327.76"/><polygon class="cls-8" points="205.85 329.87 205 328.77 206.7 328.77 205.85 329.87"/><polygon class="cls-8" points="203.72 308.41 202.87 307.31 204.56 307.31 203.72 308.41"/><polygon class="cls-8" points="202.71 321.31 201.86 320.21 203.56 320.21 202.71 321.31"/><polygon class="cls-8" points="205.6 321.71 204.75 320.61 206.45 320.61 205.6 321.71"/><polygon class="cls-8" points="202.71 324.6 201.86 323.5 203.56 323.5 202.71 324.6"/><polygon class="cls-8" points="202.71 328.55 201.86 327.45 203.56 327.45 202.71 328.55"/><polygon class="cls-8" points="209.12 330.26 208.27 329.16 209.96 329.16 209.12 330.26"/><polygon class="cls-8" points="126.69 349.68 135.48 349.68 135.48 318.74 126.69 349.68"/><polygon class="cls-9" points="135.48 318.74 135.48 349.68 144.27 349.68 135.48 318.74"/><polygon class="cls-8" points="135.42 330.11 134.57 329.01 136.27 329.01 135.42 330.11"/><polygon class="cls-8" points="137.48 332.61 136.63 331.51 138.33 331.51 137.48 332.61"/><polygon class="cls-8" points="135.47 335.9 134.62 334.8 136.32 334.8 135.47 335.9"/><polygon class="cls-8" points="138.36 336.69 137.51 335.59 139.21 335.59 138.36 336.69"/><polygon class="cls-8" points="140.24 342.49 139.39 341.39 141.09 341.39 140.24 342.49"/><polygon class="cls-8" points="137.73 345.12 136.88 344.02 138.58 344.02 137.73 345.12"/><polygon class="cls-8" points="141.37 346.44 140.53 345.34 142.22 345.34 141.37 346.44"/><polygon class="cls-8" points="138.61 348.54 137.76 347.44 139.46 347.44 138.61 348.54"/><polygon class="cls-8" points="136.47 327.08 135.63 325.98 137.32 325.98 136.47 327.08"/><polygon class="cls-8" points="135.47 339.99 134.62 338.88 136.32 338.88 135.47 339.99"/><polygon class="cls-8" points="138.36 340.38 137.51 339.28 139.21 339.28 138.36 340.38"/><polygon class="cls-8" points="135.47 343.28 134.62 342.18 136.32 342.18 135.47 343.28"/><polygon class="cls-8" points="135.47 347.23 134.62 346.13 136.32 346.13 135.47 347.23"/><polygon class="cls-8" points="141.87 348.94 141.03 347.84 142.72 347.84 141.87 348.94"/><rect class="cls-16" x="338.54" y="249.83" width="1.19" height="7.62"/><path class="cls-8" d="M332.58,244.44c0,3.13,2.94,5.67,6.56,5.67h0l0-11.33C335.51,238.78,332.58,241.32,332.58,244.44Z"/><path class="cls-9" d="M345.7,244.44c0-3.13-2.94-5.66-6.56-5.66h0l0,11.33C342.77,250.1,345.7,247.56,345.7,244.44Z"/><rect class="cls-8" x="339.74" y="241.87" width="1.43" height="0.41" rx="0.21"/><rect class="cls-8" x="342.36" y="242.69" width="1.43" height="0.41" rx="0.21"/><rect class="cls-8" x="339.74" y="244.2" width="1.43" height="0.41" rx="0.21"/><rect class="cls-8" x="343.39" y="244.61" width="1.43" height="0.41" rx="0.21"/><rect class="cls-8" x="340.69" y="246.06" width="1.43" height="0.41" rx="0.21"/><rect class="cls-8" x="342.68" y="247.22" width="1.43" height="0.41" rx="0.21"/><rect class="cls-8" x="339.74" y="248.12" width="1.43" height="0.41" rx="0.21"/><rect class="cls-8" x="341.96" y="240.63" width="1.43" height="0.41" rx="0.21"/><rect class="cls-8" x="339.74" y="239.46" width="1.43" height="0.41" rx="0.21"/><rect class="cls-16" x="373.53" y="242.86" width="1.19" height="7.62"/><path class="cls-8" d="M367.56,237.47c0,3.13,2.94,5.67,6.56,5.67h0l0-11.34C370.49,231.81,367.56,234.35,367.56,237.47Z"/><path class="cls-9" d="M380.68,237.47c0-3.13-2.94-5.67-6.56-5.67h0l0,11.34C377.76,243.13,380.68,240.59,380.68,237.47Z"/><rect class="cls-8" x="374.72" y="234.89" width="1.43" height="0.41" rx="0.21"/><rect class="cls-8" x="377.34" y="235.72" width="1.43" height="0.41" rx="0.21"/><rect class="cls-8" x="374.72" y="237.23" width="1.43" height="0.41" rx="0.21"/><rect class="cls-8" x="378.37" y="237.64" width="1.43" height="0.41" rx="0.21"/><rect class="cls-8" x="375.67" y="239.08" width="1.43" height="0.41" rx="0.21"/><rect class="cls-8" x="377.66" y="240.25" width="1.43" height="0.41" rx="0.21"/><rect class="cls-8" x="374.72" y="241.15" width="1.43" height="0.41" rx="0.21"/><rect class="cls-8" x="376.94" y="233.66" width="1.43" height="0.41" rx="0.21"/><rect class="cls-8" x="374.72" y="232.49" width="1.43" height="0.41" rx="0.21"/><rect class="cls-16" x="315.89" y="279.72" width="1.89" height="12.07"/><path class="cls-8" d="M306.45,271.18c0,5,4.65,9,10.38,9h0l-.07-17.94C311.08,262.23,306.45,266.24,306.45,271.18Z"/><path class="cls-9" d="M327.21,271.18c0-4.95-4.65-9-10.38-9h0l.07,17.94C322.58,280.13,327.21,276.13,327.21,271.18Z"/><rect class="cls-8" x="317.77" y="267.11" width="2.26" height="0.65" rx="0.33"/><rect class="cls-8" x="321.93" y="268.41" width="2.26" height="0.65" rx="0.33"/><rect class="cls-8" x="317.77" y="270.8" width="2.26" height="0.65" rx="0.33"/><rect class="cls-8" x="323.56" y="271.46" width="2.26" height="0.65" rx="0.33"/><rect class="cls-8" x="319.28" y="273.74" width="2.26" height="0.65" rx="0.33"/><rect class="cls-8" x="322.43" y="275.59" width="2.26" height="0.65" rx="0.33"/><rect class="cls-8" x="317.77" y="277" width="2.26" height="0.65" rx="0.33"/><rect class="cls-8" x="321.3" y="265.15" width="2.26" height="0.65" rx="0.33"/><rect class="cls-8" x="317.77" y="263.3" width="2.26" height="0.65" rx="0.33"/><rect class="cls-16" x="298.65" y="248.71" width="1.19" height="7.62"/><path class="cls-8" d="M292.68,243.32c0,3.13,2.94,5.67,6.56,5.67h0l0-11.33C295.61,237.66,292.68,240.19,292.68,243.32Z"/><path class="cls-9" d="M305.8,243.32c0-3.13-2.94-5.67-6.56-5.67h0l0,11.33C302.88,249,305.8,246.44,305.8,243.32Z"/><rect class="cls-8" x="299.84" y="240.74" width="1.43" height="0.41" rx="0.21"/><rect class="cls-8" x="302.46" y="241.57" width="1.43" height="0.41" rx="0.21"/><rect class="cls-8" x="299.84" y="243.08" width="1.43" height="0.41" rx="0.21"/><rect class="cls-8" x="303.49" y="243.49" width="1.43" height="0.41" rx="0.21"/><rect class="cls-8" x="300.79" y="244.93" width="1.43" height="0.41" rx="0.21"/><rect class="cls-8" x="302.78" y="246.1" width="1.43" height="0.41" rx="0.21"/><rect class="cls-8" x="299.84" y="246.99" width="1.43" height="0.41" rx="0.21"/><rect class="cls-8" x="302.06" y="239.51" width="1.43" height="0.41" rx="0.21"/><rect class="cls-8" x="299.84" y="238.34" width="1.43" height="0.41" rx="0.21"/><polygon class="cls-8" points="385.9 259.08 391.75 259.08 391.75 237.73 385.9 259.08"/><polygon class="cls-9" points="391.75 237.73 391.75 259.08 397.59 259.08 391.75 237.73"/><polygon class="cls-8" points="391.71 245.58 391.14 244.82 392.27 244.82 391.71 245.58"/><polygon class="cls-8" points="393.07 247.31 392.51 246.55 393.64 246.55 393.07 247.31"/><polygon class="cls-8" points="391.74 249.58 391.18 248.82 392.3 248.82 391.74 249.58"/><polygon class="cls-8" points="393.66 250.12 393.1 249.36 394.22 249.36 393.66 250.12"/><polygon class="cls-8" points="394.91 254.12 394.35 253.36 395.48 253.36 394.91 254.12"/><polygon class="cls-8" points="393.24 255.94 392.68 255.18 393.81 255.18 393.24 255.94"/><polygon class="cls-8" points="395.66 256.85 395.1 256.09 396.23 256.09 395.66 256.85"/><polygon class="cls-8" points="393.83 258.3 393.26 257.54 394.39 257.54 393.83 258.3"/><polygon class="cls-8" points="392.41 243.49 391.85 242.73 392.97 242.73 392.41 243.49"/><polygon class="cls-8" points="391.74 252.39 391.18 251.63 392.3 251.63 391.74 252.39"/><polygon class="cls-8" points="393.66 252.67 393.1 251.91 394.22 251.91 393.66 252.67"/><polygon class="cls-8" points="391.74 254.67 391.18 253.91 392.3 253.91 391.74 254.67"/><polygon class="cls-8" points="391.74 257.39 391.18 256.63 392.3 256.63 391.74 257.39"/><polygon class="cls-8" points="396 258.57 395.43 257.81 396.56 257.81 396 258.57"/><rect class="cls-16" x="342.92" y="309" width="1.89" height="12.07"/><path class="cls-8" d="M333.48,300.47c0,4.95,4.65,9,10.38,9h0l-.07-17.94C338.11,291.51,333.48,295.52,333.48,300.47Z"/><path class="cls-9" d="M354.24,300.47c0-5-4.65-9-10.38-9h0l.07,17.94C349.61,309.42,354.24,305.41,354.24,300.47Z"/><rect class="cls-8" x="344.81" y="296.39" width="2.26" height="0.65" rx="0.33"/><rect class="cls-8" x="348.96" y="297.7" width="2.26" height="0.65" rx="0.33"/><rect class="cls-8" x="344.81" y="300.09" width="2.26" height="0.65" rx="0.33"/><rect class="cls-8" x="350.59" y="300.74" width="2.26" height="0.65" rx="0.33"/><rect class="cls-8" x="346.32" y="303.02" width="2.26" height="0.65" rx="0.33"/><rect class="cls-8" x="349.46" y="304.87" width="2.26" height="0.65" rx="0.33"/><rect class="cls-8" x="344.81" y="306.28" width="2.26" height="0.65" rx="0.33"/><rect class="cls-8" x="348.33" y="294.43" width="2.26" height="0.65" rx="0.33"/><rect class="cls-8" x="344.81" y="292.59" width="2.26" height="0.65" rx="0.33"/><rect class="cls-16" x="307.29" y="339.07" width="5.31" height="38.06"/><path class="cls-8" d="M280.73,312.16c0,15.62,13.08,28.29,29.22,28.29h.1l-.19-56.57C293.76,283.92,280.73,296.56,280.73,312.16Z"/><path class="cls-9" d="M339.16,312.16c0-15.63-13.08-28.29-29.21-28.29h-.09l.19,56.57C326.14,340.39,339.16,327.75,339.16,312.16Z"/><rect class="cls-8" x="312.6" y="299.3" width="6.38" height="2.06" rx="1.03"/><rect class="cls-8" x="324.29" y="303.41" width="6.38" height="2.06" rx="1.03"/><rect class="cls-8" x="312.6" y="310.96" width="6.38" height="2.06" rx="1.03"/><rect class="cls-8" x="328.89" y="313.01" width="6.38" height="2.06" rx="1.03"/><rect class="cls-8" x="316.85" y="320.22" width="6.38" height="2.06" rx="1.03"/><rect class="cls-8" x="325.71" y="326.04" width="6.38" height="2.06" rx="1.03"/><rect class="cls-8" x="312.6" y="330.5" width="6.38" height="2.06" rx="1.03"/><rect class="cls-8" x="322.52" y="293.13" width="6.38" height="2.06" rx="1.03"/><rect class="cls-8" x="312.6" y="287.3" width="6.38" height="2.06" rx="1.03"/><polygon class="cls-8" points="276.5 258.38 281.5 258.38 281.5 240.13 276.5 258.38"/><polygon class="cls-9" points="281.5 240.13 281.5 258.38 286.49 258.38 281.5 240.13"/><polygon class="cls-8" points="281.46 246.84 280.98 246.19 281.95 246.19 281.46 246.84"/><polygon class="cls-8" points="282.63 248.31 282.15 247.66 283.12 247.66 282.63 248.31"/><polygon class="cls-8" points="281.49 250.25 281.01 249.6 281.98 249.6 281.49 250.25"/><polygon class="cls-8" points="283.13 250.72 282.65 250.07 283.62 250.07 283.13 250.72"/><polygon class="cls-8" points="284.2 254.13 283.72 253.48 284.69 253.48 284.2 254.13"/><polygon class="cls-8" points="282.78 255.69 282.3 255.04 283.26 255.04 282.78 255.69"/><polygon class="cls-8" points="284.85 256.46 284.37 255.81 285.33 255.81 284.85 256.46"/><polygon class="cls-8" points="283.28 257.7 282.8 257.06 283.76 257.06 283.28 257.7"/><polygon class="cls-8" points="282.06 245.05 281.58 244.4 282.55 244.4 282.06 245.05"/><polygon class="cls-8" points="281.49 252.66 281.01 252.01 281.98 252.01 281.49 252.66"/><polygon class="cls-8" points="283.13 252.89 282.65 252.24 283.62 252.24 283.13 252.89"/><polygon class="cls-8" points="281.49 254.6 281.01 253.95 281.98 253.95 281.49 254.6"/><polygon class="cls-8" points="281.49 256.93 281.01 256.28 281.98 256.28 281.49 256.93"/><polygon class="cls-8" points="285.13 257.94 284.65 257.29 285.61 257.29 285.13 257.94"/><rect class="cls-16" x="486.63" y="258.68" width="1.56" height="10.69"/><path class="cls-8" d="M478.83,251.13c0,4.38,3.84,7.94,8.58,7.94h0l-.06-15.89C482.66,243.2,478.83,246.75,478.83,251.13Z"/><path class="cls-9" d="M496,251.13c0-4.39-3.84-7.95-8.58-7.95h0l.06,15.89C492.17,259.05,496,255.5,496,251.13Z"/><rect class="cls-8" x="488.19" y="247.52" width="1.87" height="0.58" rx="0.29"/><rect class="cls-8" x="491.62" y="248.67" width="1.87" height="0.58" rx="0.29"/><rect class="cls-8" x="488.19" y="250.79" width="1.87" height="0.58" rx="0.29"/><rect class="cls-8" x="492.97" y="251.37" width="1.87" height="0.58" rx="0.29"/><rect class="cls-8" x="489.44" y="253.39" width="1.87" height="0.58" rx="0.29"/><rect class="cls-8" x="492.04" y="255.03" width="1.87" height="0.58" rx="0.29"/><rect class="cls-8" x="488.19" y="256.28" width="1.87" height="0.58" rx="0.29"/><rect class="cls-8" x="491.1" y="245.78" width="1.87" height="0.58" rx="0.29"/><rect class="cls-8" x="488.19" y="244.15" width="1.87" height="0.58" rx="0.29"/><path class="cls-13" d="M512,247.5a5.64,5.64,0,0,0-5.13-5.84V252.3H512Z"/><path class="cls-14" d="M506.65,241.66h0a5.14,5.14,0,0,0-4.91,5.35v5.29h5.13V241.66Z"/><ellipse class="cls-15" cx="507.87" cy="246.43" rx="0.5" ry="0.55"/><ellipse class="cls-15" cx="508.37" cy="243.84" rx="0.5" ry="0.55"/><ellipse class="cls-15" cx="510.37" cy="250.94" rx="0.5" ry="0.55"/><ellipse class="cls-15" cx="509.87" cy="248.35" rx="0.5" ry="0.55"/><ellipse class="cls-15" cx="507.87" cy="250.26" rx="0.5" ry="0.55"/><ellipse class="cls-15" cx="510.5" cy="245.75" rx="0.5" ry="0.55"/><path class="cls-13" d="M518.28,256.25a5.64,5.64,0,0,0-5.13-5.83v10.64h5.13Z"/><path class="cls-14" d="M512.93,250.41h0a5.15,5.15,0,0,0-4.91,5.36v5.29h5.13V250.42Z"/><ellipse class="cls-15" cx="514.15" cy="255.19" rx="0.5" ry="0.55"/><ellipse class="cls-15" cx="514.65" cy="252.6" rx="0.5" ry="0.55"/><ellipse class="cls-15" cx="516.66" cy="259.7" rx="0.5" ry="0.55"/><ellipse class="cls-15" cx="516.16" cy="257.1" rx="0.5" ry="0.55"/><ellipse class="cls-15" cx="514.15" cy="259.01" rx="0.5" ry="0.55"/><ellipse class="cls-15" cx="516.78" cy="254.51" rx="0.5" ry="0.55"/><rect class="cls-16" x="415.38" y="271.88" width="1.56" height="10.69"/><path class="cls-8" d="M407.58,264.32c0,4.38,3.84,7.94,8.58,7.94h0l-.06-15.88C411.4,256.39,407.58,259.94,407.58,264.32Z"/><path class="cls-9" d="M424.74,264.32c0-4.39-3.84-7.95-8.58-7.95h0l.06,15.88C420.91,272.24,424.74,268.7,424.74,264.32Z"/><rect class="cls-8" x="416.94" y="260.71" width="1.87" height="0.58" rx="0.29"/><rect class="cls-8" x="420.37" y="261.86" width="1.87" height="0.58" rx="0.29"/><rect class="cls-8" x="416.94" y="263.98" width="1.87" height="0.58" rx="0.29"/><rect class="cls-8" x="421.72" y="264.56" width="1.87" height="0.58" rx="0.29"/><rect class="cls-8" x="418.19" y="266.58" width="1.87" height="0.58" rx="0.29"/><rect class="cls-8" x="420.79" y="268.22" width="1.87" height="0.58" rx="0.29"/><rect class="cls-8" x="416.94" y="269.47" width="1.87" height="0.58" rx="0.29"/><rect class="cls-8" x="419.85" y="258.97" width="1.87" height="0.58" rx="0.29"/><rect class="cls-8" x="416.94" y="257.34" width="1.87" height="0.58" rx="0.29"/><polygon class="cls-8" points="433.64 328.74 437.32 328.74 437.32 311.71 433.64 328.74"/><polygon class="cls-9" points="437.32 311.71 437.32 328.74 440.99 328.74 437.32 311.71"/><polygon class="cls-8" points="437.29 317.97 436.94 317.36 437.65 317.36 437.29 317.97"/><polygon class="cls-8" points="438.15 319.34 437.8 318.74 438.51 318.74 438.15 319.34"/><polygon class="cls-8" points="437.31 321.15 436.96 320.55 437.67 320.55 437.31 321.15"/><polygon class="cls-8" points="438.52 321.59 438.17 320.98 438.87 320.98 438.52 321.59"/><polygon class="cls-8" points="439.31 324.78 438.95 324.17 439.66 324.17 439.31 324.78"/><polygon class="cls-8" points="438.26 326.23 437.9 325.62 438.61 325.62 438.26 326.23"/><polygon class="cls-8" points="439.78 326.95 439.43 326.35 440.13 326.35 439.78 326.95"/><polygon class="cls-8" points="438.62 328.11 438.27 327.5 438.98 327.5 438.62 328.11"/><polygon class="cls-8" points="437.73 316.3 437.38 315.69 438.09 315.69 437.73 316.3"/><polygon class="cls-8" points="437.31 323.4 436.96 322.79 437.67 322.79 437.31 323.4"/><polygon class="cls-8" points="438.52 323.62 438.17 323.01 438.87 323.01 438.52 323.62"/><polygon class="cls-8" points="437.31 325.21 436.96 324.61 437.67 324.61 437.31 325.21"/><polygon class="cls-8" points="437.31 327.39 436.96 326.78 437.67 326.78 437.31 327.39"/><polygon class="cls-8" points="439.99 328.33 439.63 327.72 440.34 327.72 439.99 328.33"/><polygon class="cls-8" points="439.71 331.28 446.88 331.28 446.88 298.01 439.71 331.28"/><polygon class="cls-9" points="446.88 298.01 446.88 331.28 454.05 331.28 446.88 298.01"/><polygon class="cls-8" points="446.83 310.24 446.14 309.05 447.52 309.05 446.83 310.24"/><polygon class="cls-8" points="448.51 312.93 447.82 311.74 449.21 311.74 448.51 312.93"/><polygon class="cls-8" points="446.88 316.47 446.18 315.28 447.57 315.28 446.88 316.47"/><polygon class="cls-8" points="449.23 317.32 448.54 316.13 449.92 316.13 449.23 317.32"/><polygon class="cls-8" points="450.77 323.55 450.08 322.36 451.46 322.36 450.77 323.55"/><polygon class="cls-8" points="448.72 326.38 448.03 325.19 449.41 325.19 448.72 326.38"/><polygon class="cls-8" points="451.69 327.79 451 326.61 452.38 326.61 451.69 327.79"/><polygon class="cls-8" points="449.44 330.06 448.75 328.87 450.13 328.87 449.44 330.06"/><polygon class="cls-8" points="447.69 306.98 447 305.8 448.39 305.8 447.69 306.98"/><polygon class="cls-8" points="446.88 320.86 446.18 319.67 447.57 319.67 446.88 320.86"/><polygon class="cls-8" points="449.23 321.28 448.54 320.1 449.92 320.1 449.23 321.28"/><polygon class="cls-8" points="446.88 324.39 446.18 323.21 447.57 323.21 446.88 324.39"/><polygon class="cls-8" points="446.88 328.64 446.18 327.46 447.57 327.46 446.88 328.64"/><polygon class="cls-8" points="452.1 330.48 451.41 329.3 452.79 329.3 452.1 330.48"/><polygon class="cls-8" points="167.99 276.74 175.5 276.74 175.5 250.3 167.99 276.74"/><polygon class="cls-9" points="175.5 250.3 175.5 276.74 183.01 276.74 175.5 250.3"/><polygon class="cls-8" points="175.45 260.02 174.73 259.08 176.17 259.08 175.45 260.02"/><polygon class="cls-8" points="177.21 262.15 176.49 261.21 177.93 261.21 177.21 262.15"/><polygon class="cls-8" points="175.49 264.97 174.77 264.03 176.22 264.03 175.49 264.97"/><polygon class="cls-8" points="177.96 265.64 177.24 264.7 178.69 264.7 177.96 265.64"/><polygon class="cls-8" points="179.57 270.59 178.85 269.65 180.29 269.65 179.57 270.59"/><polygon class="cls-8" points="177.42 272.84 176.7 271.9 178.15 271.9 177.42 272.84"/><polygon class="cls-8" points="180.54 273.96 179.81 273.02 181.26 273.02 180.54 273.96"/><polygon class="cls-8" points="178.18 275.76 177.45 274.82 178.9 274.82 178.18 275.76"/><polygon class="cls-8" points="176.35 257.43 175.63 256.49 177.07 256.49 176.35 257.43"/><polygon class="cls-8" points="175.49 268.45 174.77 267.51 176.22 267.51 175.49 268.45"/><polygon class="cls-8" points="177.96 268.79 177.24 267.85 178.69 267.85 177.96 268.79"/><polygon class="cls-8" points="175.49 271.27 174.77 270.32 176.22 270.32 175.49 271.27"/><polygon class="cls-8" points="175.49 274.64 174.77 273.7 176.22 273.7 175.49 274.64"/><polygon class="cls-8" points="180.97 276.1 180.24 275.16 181.69 275.16 180.97 276.1"/><polygon class="cls-8" points="162.27 279.57 166.47 279.57 166.47 267.09 162.27 279.57"/><polygon class="cls-9" points="166.47 267.09 166.47 279.57 170.67 279.57 166.47 267.09"/><polygon class="cls-8" points="166.44 271.67 166.04 271.23 166.85 271.23 166.44 271.67"/><polygon class="cls-8" points="167.43 272.68 167.02 272.24 167.83 272.24 167.43 272.68"/><polygon class="cls-8" points="166.47 274.01 166.06 273.57 166.87 273.57 166.47 274.01"/><polygon class="cls-8" points="167.85 274.33 167.44 273.88 168.25 273.88 167.85 274.33"/><polygon class="cls-8" points="168.75 276.67 168.34 276.22 169.15 276.22 168.75 276.67"/><polygon class="cls-8" points="167.55 277.73 167.14 277.29 167.95 277.29 167.55 277.73"/><polygon class="cls-8" points="169.29 278.26 168.88 277.82 169.69 277.82 169.29 278.26"/><polygon class="cls-8" points="167.97 279.11 167.56 278.67 168.37 278.67 167.97 279.11"/><polygon class="cls-8" points="166.95 270.45 166.54 270.01 167.35 270.01 166.95 270.45"/><polygon class="cls-8" points="166.47 275.66 166.06 275.21 166.87 275.21 166.47 275.66"/><polygon class="cls-8" points="167.85 275.82 167.44 275.37 168.25 275.37 167.85 275.82"/><polygon class="cls-8" points="166.47 276.99 166.06 276.54 166.87 276.54 166.47 276.99"/><polygon class="cls-8" points="166.47 278.58 166.06 278.13 166.87 278.13 166.47 278.58"/><polygon class="cls-8" points="169.53 279.27 169.12 278.82 169.93 278.82 169.53 279.27"/><rect class="cls-16" x="224.03" y="262.45" width="0.89" height="6.13"/><path class="cls-8" d="M219.56,258.11a4.75,4.75,0,0,0,4.92,4.56h0l0-9.11A4.74,4.74,0,0,0,219.56,258.11Z"/><path class="cls-9" d="M229.4,258.11a4.75,4.75,0,0,0-4.92-4.55h0l0,9.11A4.75,4.75,0,0,0,229.4,258.11Z"/><rect class="cls-8" x="224.93" y="256.04" width="1.07" height="0.33" rx="0.17"/><rect class="cls-8" x="226.89" y="256.71" width="1.07" height="0.33" rx="0.17"/><rect class="cls-8" x="224.93" y="257.92" width="1.07" height="0.33" rx="0.17"/><rect class="cls-8" x="227.67" y="258.25" width="1.07" height="0.33" rx="0.17"/><rect class="cls-8" x="225.64" y="259.41" width="1.07" height="0.33" rx="0.17"/><rect class="cls-8" x="227.13" y="260.35" width="1.07" height="0.33" rx="0.17"/><rect class="cls-8" x="224.93" y="261.07" width="1.07" height="0.33" rx="0.17"/><rect class="cls-8" x="226.6" y="255.05" width="1.07" height="0.33" rx="0.17"/><rect class="cls-8" x="224.93" y="254.11" width="1.07" height="0.33" rx="0.17"/><rect class="cls-16" x="213.66" y="262.18" width="1.45" height="9.94"/><path class="cls-8" d="M206.41,255.15c0,4.08,3.57,7.38,8,7.38h0l0-14.77C210,247.77,206.41,251.07,206.41,255.15Z"/><path class="cls-9" d="M222.37,255.15c0-4.08-3.57-7.39-8-7.39h0l0,14.77C218.81,262.52,222.37,259.22,222.37,255.15Z"/><rect class="cls-8" x="215.11" y="251.79" width="1.74" height="0.54" rx="0.27"/><rect class="cls-8" x="218.31" y="252.86" width="1.74" height="0.54" rx="0.27"/><rect class="cls-8" x="215.11" y="254.83" width="1.74" height="0.54" rx="0.27"/><rect class="cls-8" x="219.56" y="255.37" width="1.74" height="0.54" rx="0.27"/><rect class="cls-8" x="216.28" y="257.25" width="1.74" height="0.54" rx="0.27"/><rect class="cls-8" x="218.69" y="258.77" width="1.74" height="0.54" rx="0.27"/><rect class="cls-8" x="215.11" y="259.94" width="1.74" height="0.54" rx="0.27"/><rect class="cls-8" x="217.82" y="250.18" width="1.74" height="0.54" rx="0.27"/><rect class="cls-8" x="215.11" y="248.66" width="1.74" height="0.54" rx="0.27"/><rect class="cls-16" x="265.22" y="287.92" width="1.45" height="9.94"/><path class="cls-8" d="M258,280.89c0,4.08,3.57,7.39,8,7.39h0l-.06-14.77C261.53,273.52,258,276.82,258,280.89Z"/><path class="cls-9" d="M273.93,280.89c0-4.08-3.58-7.38-8-7.38h0l.06,14.77C270.37,288.27,273.93,285,273.93,280.89Z"/><rect class="cls-8" x="266.67" y="277.54" width="1.74" height="0.54" rx="0.27"/><rect class="cls-8" x="269.86" y="278.61" width="1.74" height="0.54" rx="0.27"/><rect class="cls-8" x="266.67" y="280.58" width="1.74" height="0.54" rx="0.27"/><rect class="cls-8" x="271.12" y="281.12" width="1.74" height="0.54" rx="0.27"/><rect class="cls-8" x="267.83" y="283" width="1.74" height="0.54" rx="0.27"/><rect class="cls-8" x="270.25" y="284.52" width="1.74" height="0.54" rx="0.27"/><rect class="cls-8" x="266.67" y="285.68" width="1.74" height="0.54" rx="0.27"/><rect class="cls-8" x="269.38" y="275.92" width="1.74" height="0.54" rx="0.27"/><rect class="cls-8" x="266.67" y="274.4" width="1.74" height="0.54" rx="0.27"/><rect class="cls-16" x="140.74" y="276.39" width="2.43" height="15.88"/><path class="cls-8" d="M128.6,265.16c0,6.52,6,11.8,13.36,11.8h0l-.09-23.6C134.56,253.37,128.6,258.65,128.6,265.16Z"/><path class="cls-9" d="M155.32,265.16c0-6.52-6-11.81-13.36-11.81h0L142,277C149.37,276.94,155.32,271.66,155.32,265.16Z"/><rect class="cls-8" x="143.17" y="259.79" width="2.92" height="0.86" rx="0.43"/><rect class="cls-8" x="148.52" y="261.51" width="2.92" height="0.86" rx="0.43"/><rect class="cls-8" x="143.17" y="264.66" width="2.92" height="0.86" rx="0.43"/><rect class="cls-8" x="150.63" y="265.51" width="2.92" height="0.86" rx="0.43"/><rect class="cls-8" x="145.12" y="268.52" width="2.92" height="0.86" rx="0.43"/><rect class="cls-8" x="149.17" y="270.95" width="2.92" height="0.86" rx="0.43"/><rect class="cls-8" x="143.17" y="272.81" width="2.92" height="0.86" rx="0.43"/><rect class="cls-8" x="147.71" y="257.22" width="2.92" height="0.86" rx="0.43"/><rect class="cls-8" x="143.17" y="254.78" width="2.92" height="0.86" rx="0.43"/><rect class="cls-16" x="100.59" y="330.5" width="6.76" height="47.22"/><path class="cls-8" d="M66.78,297.1c0,19.38,16.65,35.1,37.19,35.1h.13L103.86,262C83.37,262.06,66.78,277.75,66.78,297.1Z"/><path class="cls-9" d="M141.16,297.1c0-19.39-16.65-35.1-37.19-35.1h-.11l.24,70.19C124.58,332.13,141.16,316.44,141.16,297.1Z"/><rect class="cls-8" x="107.35" y="281.15" width="8.11" height="2.55" rx="1.28"/><rect class="cls-8" x="122.22" y="286.25" width="8.11" height="2.55" rx="1.28"/><rect class="cls-8" x="107.35" y="295.61" width="8.11" height="2.55" rx="1.28"/><rect class="cls-8" x="128.09" y="298.16" width="8.11" height="2.55" rx="1.28"/><rect class="cls-8" x="112.76" y="307.1" width="8.11" height="2.55" rx="1.28"/><rect class="cls-8" x="124.03" y="314.33" width="8.11" height="2.55" rx="1.28"/><rect class="cls-8" x="107.35" y="319.86" width="8.11" height="2.55" rx="1.28"/><rect class="cls-8" x="119.97" y="273.49" width="8.11" height="2.55" rx="1.28"/><rect class="cls-8" x="107.35" y="266.25" width="8.11" height="2.55" rx="1.28"/><polygon class="cls-8" points="208.75 299.92 214.53 299.92 214.53 279.59 208.75 299.92"/><polygon class="cls-9" points="214.53 279.59 214.53 299.92 220.3 299.92 214.53 279.59"/><polygon class="cls-8" points="214.49 287.06 213.94 286.34 215.05 286.34 214.49 287.06"/><polygon class="cls-8" points="215.84 288.7 215.29 287.98 216.4 287.98 215.84 288.7"/><polygon class="cls-8" points="214.53 290.87 213.97 290.14 215.08 290.14 214.53 290.87"/><polygon class="cls-8" points="216.42 291.38 215.87 290.66 216.98 290.66 216.42 291.38"/><polygon class="cls-8" points="217.66 295.19 217.1 294.47 218.22 294.47 217.66 295.19"/><polygon class="cls-8" points="216.01 296.92 215.45 296.2 216.57 296.2 216.01 296.92"/><polygon class="cls-8" points="218.4 297.78 217.84 297.06 218.96 297.06 218.4 297.78"/><polygon class="cls-8" points="216.59 299.17 216.03 298.44 217.14 298.44 216.59 299.17"/><polygon class="cls-8" points="215.19 285.07 214.63 284.35 215.74 284.35 215.19 285.07"/><polygon class="cls-8" points="214.53 293.55 213.97 292.82 215.08 292.82 214.53 293.55"/><polygon class="cls-8" points="216.42 293.81 215.87 293.08 216.98 293.08 216.42 293.81"/><polygon class="cls-8" points="214.53 295.71 213.97 294.99 215.08 294.99 214.53 295.71"/><polygon class="cls-8" points="214.53 298.3 213.97 297.58 215.08 297.58 214.53 298.3"/><polygon class="cls-8" points="218.73 299.43 218.18 298.7 219.29 298.7 218.73 299.43"/><path class="cls-16" d="M239.22,352c-15.27-.07-27.7,11.25-27.76,25.3l55.28.26C266.8,363.54,254.48,352.09,239.22,352Z"/><path class="cls-17" d="M258.59,364.65c-7.68,0-13.91,5.73-13.91,12.8H272.5C272.5,370.38,266.27,364.65,258.59,364.65Z"/><path class="cls-16" d="M637.4,352c-15.27,0-27.64,11.39-27.64,25.43H665C665,363.41,652.67,352,637.4,352Z"/><path class="cls-17" d="M612.28,359.43a18,18,0,0,0-17.87,18h35.73A17.94,17.94,0,0,0,612.28,359.43Z"/><path class="cls-17" d="M463.87,359.94A18,18,0,0,0,446,378h35.73A17.94,17.94,0,0,0,463.87,359.94Z"/><path class="cls-16" d="M125.11,359.92c-8.58,0-15.54,7.85-15.54,17.53h31.09C140.66,367.77,133.7,359.92,125.11,359.92Z"/><polyline class="cls-14" points="114.52 377.45 107.49 377.45 110 372.36 111.1 370.33"/><polyline class="cls-14" points="121.56 377.45 114.52 377.45 117.04 372.36 118.13 370.33"/><polyline class="cls-14" points="128.59 377.45 121.56 377.45 124.07 372.36 125.17 370.33"/><polyline class="cls-14" points="135.63 377.45 128.59 377.45 131.11 372.36 132.2 370.33"/><polyline class="cls-14" points="142.67 377.45 135.63 377.45 138.14 372.36 139.24 370.33"/><polyline class="cls-14" points="149.7 377.45 142.67 377.45 145.18 372.36 146.28 370.33"/><polyline class="cls-14" points="156.74 377.45 149.7 377.45 152.22 372.36 153.31 370.33"/><polyline class="cls-14" points="163.77 377.45 156.74 377.45 159.25 372.36 160.35 370.33"/><polyline class="cls-14" points="170.81 377.45 163.77 377.45 166.29 372.36 167.38 370.33"/><polyline class="cls-14" points="177.84 377.45 170.81 377.45 173.32 372.36 174.42 370.33"/><polyline class="cls-14" points="184.88 377.45 177.84 377.45 180.36 372.36 181.45 370.33"/><polyline class="cls-14" points="191.92 377.45 184.88 377.45 187.39 372.36 188.49 370.33"/><polyline class="cls-14" points="198.95 377.45 191.92 377.45 194.43 372.36 195.53 370.33"/><polyline class="cls-14" points="205.99 377.45 198.95 377.45 201.47 372.36 202.56 370.33"/><polyline class="cls-14" points="213.02 377.45 205.99 377.45 208.5 372.36 209.6 370.33"/><polyline class="cls-14" points="220.06 377.45 213.02 377.45 215.54 372.36 216.63 370.33"/><polyline class="cls-14" points="227.09 377.45 220.06 377.45 222.57 372.36 223.67 370.33"/><polyline class="cls-14" points="294.44 377.45 287.4 377.45 289.91 372.36 291.01 370.33"/><polyline class="cls-14" points="301.47 377.45 294.44 377.45 296.95 372.36 298.05 370.33"/><polyline class="cls-14" points="308.51 377.45 301.47 377.45 303.99 372.36 305.08 370.33"/><polyline class="cls-14" points="315.55 377.45 308.51 377.45 311.02 372.36 312.12 370.33"/><polyline class="cls-14" points="322.58 377.45 315.55 377.45 318.06 372.36 319.15 370.33"/><polyline class="cls-14" points="329.62 377.45 322.58 377.45 325.09 372.36 326.19 370.33"/><polyline class="cls-14" points="336.65 377.45 329.62 377.45 332.13 372.36 333.23 370.33"/><polyline class="cls-14" points="343.69 377.45 336.65 377.45 339.17 372.36 340.26 370.33"/><polyline class="cls-14" points="350.72 377.45 343.69 377.45 346.2 372.36 347.3 370.33"/><polyline class="cls-14" points="357.76 377.45 350.72 377.45 353.24 372.36 354.33 370.33"/><polyline class="cls-14" points="364.8 377.45 357.76 377.45 360.27 372.36 361.37 370.33"/><polyline class="cls-14" points="371.83 377.45 364.8 377.45 367.31 372.36 368.4 370.33"/><polyline class="cls-14" points="378.87 377.45 371.83 377.45 374.34 372.36 375.44 370.33"/><polyline class="cls-14" points="385.9 377.45 378.87 377.45 381.38 372.36 382.48 370.33"/><polyline class="cls-14" points="392.94 377.45 385.9 377.45 388.42 372.36 389.51 370.33"/><polyline class="cls-14" points="399.97 377.45 392.94 377.45 395.45 372.36 396.55 370.33"/><polyline class="cls-14" points="407.01 377.45 399.97 377.45 402.49 372.36 403.58 370.33"/><polyline class="cls-14" points="516.57 377.45 509.53 377.45 512.04 372.36 513.14 370.33"/><polyline class="cls-14" points="523.6 377.45 516.57 377.45 519.08 372.36 520.17 370.33"/><polyline class="cls-14" points="530.64 377.45 523.6 377.45 526.11 372.36 527.21 370.33"/><polyline class="cls-14" points="537.67 377.45 530.64 377.45 533.15 372.36 534.25 370.33"/><polyline class="cls-14" points="544.71 377.45 537.67 377.45 540.19 372.36 541.28 370.33"/><polyline class="cls-14" points="551.74 377.45 544.71 377.45 547.22 372.36 548.32 370.33"/><polyline class="cls-14" points="558.78 377.45 551.74 377.45 554.26 372.36 555.35 370.33"/><polyline class="cls-14" points="565.82 377.45 558.78 377.45 561.29 372.36 562.39 370.33"/><polyline class="cls-14" points="572.85 377.45 565.82 377.45 568.33 372.36 569.42 370.33"/><polyline class="cls-14" points="579.89 377.45 572.85 377.45 575.36 372.36 576.46 370.33"/><polyline class="cls-14" points="586.92 377.45 579.89 377.45 582.4 372.36 583.5 370.33"/><polyline class="cls-14" points="593.96 377.45 586.92 377.45 589.44 372.36 590.53 370.33"/><polyline class="cls-14" points="600.99 377.45 593.96 377.45 596.47 372.36 597.57 370.33"/><polyline class="cls-14" points="608.03 377.45 600.99 377.45 603.51 372.36 604.6 370.33"/><polyline class="cls-14" points="615.07 377.45 608.03 377.45 610.54 372.36 611.64 370.33"/><polyline class="cls-14" points="622.1 377.45 615.07 377.45 617.58 372.36 618.67 370.33"/><polyline class="cls-14" points="629.14 377.45 622.1 377.45 624.61 372.36 625.71 370.33"/></g></g></svg>