<svg id="Layer_1" data-name="Layer 1" xmlns="http://www.w3.org/2000/svg" viewBox="0 0 25 51"><defs><style>.cls-1{fill:#999;}.cls-2{fill:#c00;}.cls-3{fill:#d15959;}</style></defs><polygon class="cls-1" points="11.3 20 11.3 43.64 12.8 48 14.3 43.64 14.3 20 11.3 20"/><ellipse class="cls-2" cx="12.96" cy="14.36" rx="8.96" ry="8.64"/><path class="cls-3" d="M11,6.67l-.4.1a7.86,7.86,0,0,0-3.33,2,7.05,7.05,0,0,0-1.56,2.43,10.64,10.64,0,0,0-.57,3.17c0,.19,0,1,.08,1s.23-1,.64-2.13A8.7,8.7,0,0,1,8,10a10,10,0,0,1,3.39-2.15,9.29,9.29,0,0,1,1.93-.5c.33,0,.67-.08,1-.1s.65.1.82-.07c-.16-.06-.32-.16-.48-.22l-.59-.19a6.82,6.82,0,0,0-1.17-.2A7,7,0,0,0,11,6.67Z"/></svg>